<svg width="32" height="32" viewBox="0 0 32 32" fill="none" xmlns="http://www.w3.org/2000/svg">
<mask id="mask0_22_1314" style="mask-type:luminance" maskUnits="userSpaceOnUse" x="0" y="0" width="32" height="32">
<path d="M31.342 0H0V31.342H31.342V0Z" fill="white"/>
</mask>
<g mask="url(#mask0_22_1314)">
<path d="M3.06813 13.7441C2.94083 13.2691 2.94082 12.769 3.06808 12.2941C3.19534 11.8191 3.44539 11.386 3.7931 11.0383L11.0385 3.7929C11.3862 3.44519 11.8193 3.19514 12.2943 3.06788C12.7692 2.94062 13.2693 2.94063 13.7443 3.06793L20.5242 4.8846C20.5947 3.95578 20.9181 3.06395 21.4593 2.30572L13.2934 0.117896C12.7072 -0.0391393 12.0901 -0.0391361 11.504 0.117907C10.9179 0.27495 10.3834 0.5835 9.95431 1.01255L1.01291 9.95394C0.583864 10.383 0.275315 10.9175 0.118273 11.5036C-0.0387698 12.0897 -0.0387732 12.7069 0.118263 13.293L2.39025 21.7721C3.13297 21.2049 4.01724 20.8526 4.94652 20.7538L3.06813 13.7441Z" fill="#18CDCA"/>
<path d="M26.3338 10.3539L28.2749 17.598C28.4022 18.073 28.4021 18.5731 28.2749 19.0479C28.1476 19.523 27.8975 19.956 27.5498 20.3037L20.3043 27.5493C19.9566 27.897 19.5236 28.147 19.0485 28.2743C18.5737 28.4015 18.0735 28.4015 17.5986 28.2743L10.5888 26.3959C10.49 27.3252 10.1378 28.2095 9.57056 28.9522L18.0497 31.2242C18.6357 31.3813 19.2529 31.3813 19.839 31.2242C20.4252 31.0671 20.9596 30.7586 21.3887 30.3295L30.3301 21.3881C30.7592 20.959 31.0677 20.4246 31.2248 19.8384C31.3819 19.2523 31.3819 18.6351 31.2248 18.0491L28.8671 9.25253C28.1401 9.84592 27.2634 10.2271 26.3338 10.3539Z" fill="#18CDCA"/>
<path d="M2.59376 22.9414C2.01952 23.5156 1.62845 24.2474 1.47001 25.0437C1.31158 25.8403 1.39289 26.6659 1.70367 27.4162C2.01443 28.1664 2.54072 28.8077 3.21594 29.2589C3.89117 29.71 4.68502 29.9509 5.49712 29.9509C6.30921 29.9509 7.10307 29.71 7.7783 29.2589C8.45353 28.8077 8.97982 28.1664 9.29058 27.4162C9.60136 26.6659 9.68267 25.8403 9.52422 25.0437C9.3658 24.2474 8.97473 23.5156 8.40049 22.9414C7.62987 22.1726 6.58572 21.7408 5.49712 21.7408C4.40853 21.7408 3.36438 22.1726 2.59376 22.9414Z" fill="#4F80E1"/>
<path d="M22.7292 2.382C22.155 2.95623 21.7638 3.68785 21.6055 4.48435C21.4471 5.28083 21.5283 6.10641 21.8391 6.8567C22.1499 7.60697 22.6762 8.24825 23.3513 8.69942C24.0266 9.1506 24.8205 9.39142 25.6325 9.39142C26.4447 9.39142 27.2385 9.1506 27.9138 8.69942C28.589 8.24825 29.1152 7.60697 29.426 6.8567C29.7368 6.10641 29.8181 5.28083 29.6596 4.48435C29.5013 3.68785 29.1101 2.95623 28.5359 2.382C27.7654 1.61312 26.7211 1.1813 25.6325 1.1813C24.544 1.1813 23.4997 1.61312 22.7292 2.382Z" fill="#4F80E1"/>
<path d="M18.0813 26.555C17.9164 26.555 17.7524 26.5335 17.593 26.4908L11.1765 24.7714C10.9625 23.6288 10.4082 22.5776 9.58627 21.7557C8.76432 20.9338 7.71313 20.3794 6.57059 20.1655L4.85134 13.7494C4.76611 13.4294 4.76635 13.0926 4.85207 12.7727C4.9378 12.4528 5.10598 12.161 5.33981 11.9265L11.9257 5.34035C12.16 5.10606 12.4518 4.93759 12.7719 4.85183C13.0919 4.76609 13.4289 4.76611 13.7489 4.85188L19.9856 6.52302C20.233 7.65848 20.8175 8.69276 21.6627 9.49038C22.5078 10.288 23.5742 10.8117 24.722 10.993L26.4902 17.5936C26.5754 17.9137 26.5753 18.2506 26.4894 18.5704C26.4037 18.8903 26.2356 19.1821 26.0016 19.4167L19.4157 26.0027C19.2409 26.1783 19.0328 26.3177 18.8038 26.4124C18.5747 26.5073 18.3292 26.5557 18.0813 26.555Z" fill="#4F80E1"/>
</g>
</svg>
